<svg width="28" height="28" viewBox="0 0 28 28" fill="none" xmlns="http://www.w3.org/2000/svg">
<path d="M3 9C8.5 7.5 10 16 15.5 18.5L25 12.5C19.5 10.5 18 3.5 13 3.5L3 9Z" fill="url(#paint0_linear_3525_2929)"/>
<path d="M3 15.9999L15.5 24.4999L25 18.4999V12.4999L15.5 18.4999C10 15.9999 8.5 7.49992 3 8.99992V15.9999Z" fill="url(#paint1_linear_3525_2929)"/>
<path d="M13 3.5L3 9V16L15.5 24.5L25 18.5V12.5C19.5 10.5 18 3.5 13 3.5Z" stroke="#27292A" stroke-linejoin="round"/>
<path d="M15.5 24.4999V18.4999M15.5 18.4999C10 15.9999 8.5 7.49992 3 8.99992M15.5 18.4999L25 12.4999" stroke="#27292A" stroke-width="0.5" stroke-linecap="round" stroke-linejoin="round"/>
<defs>
<linearGradient id="paint0_linear_3525_2929" x1="26.375" y1="11" x2="1.625" y2="11" gradientUnits="userSpaceOnUse">
<stop stop-color="#DB771F"/>
<stop offset="1" stop-color="#EFBB85"/>
</linearGradient>
<linearGradient id="paint1_linear_3525_2929" x1="26.1" y1="8.82373" x2="10.855" y2="30.1194" gradientUnits="userSpaceOnUse">
<stop stop-color="#EAEAEB"/>
<stop offset="1" stop-color="#C6C6C7"/>
</linearGradient>
</defs>
</svg>
