<svg width="28" height="28" viewBox="0 0 28 28" fill="none" xmlns="http://www.w3.org/2000/svg">
<path d="M3 4V24H25V8H14L11 4H3Z" fill="#D5D6D7" stroke="#27292A" stroke-linecap="round" stroke-linejoin="round"/>
<path d="M3 8H25V24H3V8Z" fill="#F2F3F4" stroke="#27292A" stroke-linecap="round" stroke-linejoin="round"/>
<path fill-rule="evenodd" clip-rule="evenodd" d="M8.4 11L6 13V21H8C8 21 9.76718 20.1062 11 20.1667C12.0497 20.2181 13.5 21 13.5 21H15.6L18 19V11H8.4Z" fill="url(#paint0_linear_3525_2917)"/>
<path d="M6 13H15.6M15.6 13L18 11M15.6 13V21" stroke="#27292A" stroke-width="0.5" stroke-linecap="round" stroke-linejoin="round"/>
<path fill-rule="evenodd" clip-rule="evenodd" d="M8.4 11L6 13V21H8C8 21 9.76718 20.1062 11 20.1667C12.0497 20.2181 13.5 21 13.5 21H15.6L18 19V11H8.4Z" stroke="#27292A" stroke-width="0.5" stroke-linecap="round" stroke-linejoin="round"/>
<path d="M8 13.0002V21C8 21 9.85726 20.1667 11 20.1667C12.1427 20.1667 13.5 21 13.5 21V13.0002C13.5 13.0002 13.2 12.0002 11.4 12.0002C9.60005 12.0002 8 13.0002 8 13.0002Z" fill="url(#paint1_linear_3525_2917)" stroke="#27292A" stroke-width="0.5" stroke-linejoin="round"/>
<path fill-rule="evenodd" clip-rule="evenodd" d="M13.4 12L11 14V22H13C13 22 14.7672 21.1062 16 21.1667C17.0497 21.2181 18.5 22 18.5 22H20.6L23 20V12H13.4Z" fill="url(#paint2_linear_3525_2917)"/>
<path d="M11 14H20.6M20.6 14L23 12M20.6 14V22" stroke="#27292A" stroke-width="0.5" stroke-linecap="round" stroke-linejoin="round"/>
<path fill-rule="evenodd" clip-rule="evenodd" d="M13.4 12L11 14V22H13C13 22 14.7672 21.1062 16 21.1667C17.0497 21.2181 18.5 22 18.5 22H20.6L23 20V12H13.4Z" stroke="#27292A" stroke-width="0.5" stroke-linecap="round" stroke-linejoin="round"/>
<path d="M13 14.0002V22C13 22 14.8573 21.1667 16 21.1667C17.1427 21.1667 18.5 22 18.5 22V14.0002C18.5 14.0002 18.2 13.0002 16.4 13.0002C14.6 13.0002 13 14.0002 13 14.0002Z" fill="url(#paint3_linear_3525_2917)" stroke="#27292A" stroke-width="0.5" stroke-linejoin="round"/>
<defs>
<linearGradient id="paint0_linear_3525_2917" x1="5.4" y1="11" x2="15.5133" y2="23.0796" gradientUnits="userSpaceOnUse">
<stop stop-color="#EAEAEB"/>
<stop offset="1" stop-color="#C6C6C7"/>
</linearGradient>
<linearGradient id="paint1_linear_3525_2917" x1="7.65625" y1="16.5001" x2="13.8438" y2="16.5001" gradientUnits="userSpaceOnUse">
<stop stop-color="#DB771F"/>
<stop offset="1" stop-color="#EFBB85"/>
</linearGradient>
<linearGradient id="paint2_linear_3525_2917" x1="10.4" y1="12" x2="20.5133" y2="24.0796" gradientUnits="userSpaceOnUse">
<stop stop-color="#EAEAEB"/>
<stop offset="1" stop-color="#C6C6C7"/>
</linearGradient>
<linearGradient id="paint3_linear_3525_2917" x1="12.6563" y1="17.5001" x2="18.8438" y2="17.5001" gradientUnits="userSpaceOnUse">
<stop stop-color="#DB771F"/>
<stop offset="1" stop-color="#EFBB85"/>
</linearGradient>
</defs>
</svg>
