<svg width="28" height="28" viewBox="0 0 28 28" fill="none" xmlns="http://www.w3.org/2000/svg">
<path d="M18 9L6 16" stroke="#12B886" stroke-width="1.5" stroke-linecap="round" stroke-linejoin="round"/>
<path d="M6 16L18 23" stroke="#E53F38" stroke-width="1.5" stroke-linecap="round" stroke-linejoin="round"/>
<path d="M6 16V4" stroke="#0070E7" stroke-width="1.5" stroke-linecap="round" stroke-linejoin="round"/>
<path d="M19.5 15.5C22.5662 15.5 25.2053 17.3238 26.3809 19.9414L26.4326 20.0771C26.5223 20.3519 26.5223 20.6481 26.4326 20.9229L26.3809 21.0586C25.2053 23.6762 22.5662 25.5 19.5 25.5C16.5298 25.5 13.9609 23.7884 12.7344 21.3018L12.6191 21.0586C12.4597 20.7035 12.4597 20.2965 12.6191 19.9414L12.7344 19.6982C13.9609 17.2116 16.5298 15.5 19.5 15.5Z" fill="white" stroke="white"/>
<path d="M19.5 16.5C22.0772 16.5 24.3057 17.9843 25.3691 20.1406L25.4678 20.3516C25.4996 20.4224 25.508 20.5006 25.4922 20.5752L25.4678 20.6484C24.4485 22.9181 22.1603 24.5 19.5 24.5C16.9228 24.5 14.6943 23.0157 13.6309 20.8594L13.5322 20.6484C13.5004 20.5776 13.492 20.4994 13.5078 20.4248L13.5322 20.3516C14.5515 18.0819 16.8397 16.5 19.5 16.5Z" stroke="#27292A"/>
<circle cx="19.5" cy="20.5" r="2" fill="#27292A"/>
</svg>
