<svg width="28" height="28" viewBox="0 0 28 28" fill="none" xmlns="http://www.w3.org/2000/svg">
<rect x="3" y="3" width="18" height="4" fill="#D5D6D7" stroke="#27292A" stroke-linejoin="round"/>
<rect x="3" y="7" width="18" height="14" fill="#F2F3F4" stroke="#27292A" stroke-linejoin="round"/>
<path d="M3 10.5H21M3 14H21M3 17.5H21M7.5 7V21M12 7V21M16.5 7V21" stroke="#27292A" stroke-width="0.5" stroke-linejoin="round"/>
<path d="M8 16.1L17 11.6L26 16.1L17 20.6L8 16.1Z" fill="#F2F3F4"/>
<path d="M17 20.6L8 16.1V21.5L17 26V20.6Z" fill="#D5D6D7"/>
<path d="M26 16.1L17 20.6V26L26 21.5V16.1Z" fill="#B7B8B9"/>
<path d="M8 16L17 20.5455M17 20.5455L26 16M17 20.5455V26" stroke="#27292A" stroke-width="0.5" stroke-linejoin="round"/>
<path d="M8 21.5V16.1L17 11.6L26 16.1V21.5L17 26L8 21.5Z" stroke="#27292A" stroke-linejoin="round"/>
<path d="M13.4 15.2V9.8C13.4 8.80589 15.0118 8 17 8C18.9882 8 20.6 8.80589 20.6 9.8V15.2C20.6 16.1941 18.9882 17 17 17C15.0118 17 13.4 16.1941 13.4 15.2Z" fill="url(#paint0_linear_3525_2931)"/>
<ellipse cx="17" cy="9.8" rx="3.6" ry="1.8" fill="#FFEDDA"/>
<path d="M13.4 15.2V9.8C13.4 8.80589 15.0118 8 17 8C18.9882 8 20.6 8.80589 20.6 9.8V15.2C20.6 16.1941 18.9882 17 17 17C15.0118 17 13.4 16.1941 13.4 15.2Z" stroke="#D44A1A" stroke-width="0.9" stroke-linecap="round" stroke-linejoin="round"/>
<path d="M20.6 9.8C20.6 10.7941 18.9882 11.6 17 11.6C15.0118 11.6 13.4 10.7941 13.4 9.8" stroke="#D44A1A" stroke-width="0.45"/>
<defs>
<linearGradient id="paint0_linear_3525_2931" x1="12.95" y1="12.5" x2="21.05" y2="12.5" gradientUnits="userSpaceOnUse">
<stop stop-color="#DB771F"/>
<stop offset="1" stop-color="#EFBB85"/>
</linearGradient>
</defs>
</svg>
